<svg xmlns="http://www.w3.org/2000/svg" width="1200" height="420" viewBox="0 0 1200 420" role="img" aria-labelledby="title desc">
<title id="title">Augustus Otu — Useful software. Built from the ground up.</title><desc id="desc">Product engineering, native systems, and GPU interfaces. An abstract stack of application layers on a dark background.</desc>
<rect width="1200" height="420" rx="22" fill="#101820"/>
<path d="M800 0V420M900 0V420M1000 0V420M1100 0V420M720 100H1200M720 200H1200M720 300H1200" stroke="#22303b"/>
<rect x="56" y="52" width="8" height="8" rx="2" fill="#ccf575"/>
<text x="78" y="62" font-family="Arial, sans-serif" font-size="18" letter-spacing="3" fill="#ccf575">AUGUSTUS OTU / AUGANI</text>
<text x="56" y="152" font-family="Arial, sans-serif" font-size="62" font-weight="700" letter-spacing="-2" fill="#f4f7fa">Useful software.</text>
<text x="56" y="224" font-family="Arial, sans-serif" font-size="62" font-weight="700" letter-spacing="-2" fill="#f4f7fa">Built from the</text>
<text x="56" y="296" font-family="Arial, sans-serif" font-size="62" font-weight="700" letter-spacing="-2" fill="#ccf575">ground up.</text>
<text x="58" y="368" font-family="Arial, sans-serif" font-size="18" fill="#b4c1ce">PRODUCT ENGINEERING · NATIVE SYSTEMS · GPU INTERFACES</text>
<g transform="translate(815 90)">
<path d="M0 210L125 150L285 210L160 270Z" fill="#1c2a34" stroke="#567080" stroke-width="2"/>
<path d="M0 145L125 85L285 145L160 205Z" fill="#273944" stroke="#82a1b0" stroke-width="2"/>
<path d="M0 80L125 20L285 80L160 140Z" fill="#ccf575"/>
<path d="M67 79L132 48L215 80L150 111Z" fill="#101820"/>
<path d="M115 75L137 65L164 76L142 87Z" fill="#ccf575"/>
<path d="M0 92V122M285 92V122M0 158V188M285 158V188" stroke="#567080" stroke-width="2"/>
</g></svg>